<?xml version="1.0" standalone="no"?>
<!DOCTYPE svg PUBLIC "-//W3C//DTD SVG 20010904//EN"
 "http://www.w3.org/TR/2001/REC-SVG-20010904/DTD/svg10.dtd">
<svg version="1.0" xmlns="http://www.w3.org/2000/svg"
 width="512.000000pt" height="512.000000pt" viewBox="0 0 512.000000 512.000000"
 preserveAspectRatio="xMidYMid meet">
<metadata>
Created by potrace 1.14, written by Peter Selinger 2001-2017
</metadata>
<g transform="translate(0.000000,512.000000) scale(0.100000,-0.100000)"
fill="#000000" stroke="none">
<path d="M895 5038 c-51 -30 -54 -36 -110 -301 -45 -213 -57 -251 -85 -275
-26 -22 -58 -31 -285 -81 -122 -27 -231 -55 -243 -62 -30 -19 -55 -68 -54
-106 3 -71 46 -112 136 -129 l39 -7 -29 -21 c-83 -60 -157 -175 -169 -262 -11
-80 -23 -190 -30 -269 -2 -33 -9 -107 -14 -165 -6 -58 -13 -145 -16 -195 -3
-49 -8 -119 -10 -155 -28 -409 -28 -1393 0 -1745 2 -27 6 -95 10 -150 4 -55 8
-116 10 -135 2 -19 6 -69 9 -110 4 -41 9 -93 11 -115 2 -22 6 -65 10 -95 3
-30 8 -80 11 -110 14 -136 65 -237 158 -312 91 -73 157 -91 386 -103 58 -3
134 -8 170 -10 90 -7 227 -15 535 -30 123 -6 412 -16 575 -20 170 -5 1171 -4
1305 0 55 2 189 6 297 10 108 3 229 8 270 10 40 2 127 6 193 9 66 4 152 8 190
11 39 2 113 7 165 10 52 3 120 7 150 10 30 2 89 7 130 10 185 14 310 93 379
238 28 61 36 91 46 192 5 56 14 140 20 200 2 22 7 74 10 115 4 41 8 91 11 110
2 18 6 84 10 145 3 60 7 126 9 145 27 271 26 1457 -1 1704 -12 104 -71 209
-155 276 -45 36 -141 80 -174 80 -20 0 -23 20 -23 178 -1 127 -4 148 -23 188
-25 50 -66 85 -119 102 -24 8 -165 12 -436 13 -378 1 -404 0 -445 -18 -64 -28
-111 -88 -124 -157 -2 -11 -4 -74 -4 -140 l-1 -119 -47 7 c-114 15 -245 110
-297 215 -31 63 -40 99 -50 207 -14 143 -94 267 -216 331 -94 51 -124 53 -645
49 -264 -2 -484 -5 -490 -6 -37 -8 -55 1 -55 28 0 28 -22 67 -50 89 -13 10
-131 42 -210 57 -72 13 -268 58 -290 67 -14 6 -33 22 -44 36 -16 22 -83 288
-102 403 -12 77 -34 125 -67 148 -36 24 -99 29 -132 10z"/>
</g>
</svg>
